<?xml version="1.0" standalone="no"?>
<!DOCTYPE svg PUBLIC "-//W3C//DTD SVG 20010904//EN"
 "http://www.w3.org/TR/2001/REC-SVG-20010904/DTD/svg10.dtd">
<svg version="1.0" xmlns="http://www.w3.org/2000/svg"
 width="512.000000pt" height="512.000000pt" viewBox="0 0 512.000000 512.000000"
 preserveAspectRatio="xMidYMid meet">

<g transform="translate(0.000000,512.000000) scale(0.100000,-0.100000)"
fill="#000000" stroke="none">
<path d="M1903 5106 c-38 -18 -496 -281 -537 -309 -15 -11 -37 -38 -47 -61
-17 -37 -19 -71 -19 -351 l-1 -310 -258 -148 c-261 -150 -301 -179 -320 -230
-7 -18 -11 -146 -11 -348 0 -354 1 -362 64 -416 l36 -32 0 -285 c0 -262 1
-286 19 -307 26 -32 86 -32 112 0 17 21 19 44 19 262 0 131 3 239 8 239 4 0
79 -42 167 -93 l160 -92 3 -524 c2 -586 5 -563 -66 -574 -52 -9 -89 -40 -102
-85 -5 -21 -10 -149 -10 -293 0 -285 -2 -292 -67 -305 -27 -5 -37 -1 -63 24
l-30 30 0 584 0 585 -23 21 c-31 29 -77 29 -105 -1 l-22 -23 0 -595 0 -594 24
-51 c82 -177 324 -176 419 1 20 37 22 57 25 297 l4 256 31 13 c17 7 46 26 64
43 61 53 67 74 73 253 l5 162 229 -132 c306 -176 266 -176 566 -2 l225 131 5
-436 c5 -415 6 -437 26 -480 47 -102 133 -160 234 -160 113 0 199 54 246 155
23 49 24 55 24 378 0 180 2 327 4 327 3 0 26 -11 52 -25 26 -14 62 -25 80 -25
31 0 34 -3 34 -28 0 -49 28 -126 61 -165 58 -70 148 -99 240 -77 67 16 151 94
168 155 6 22 11 117 11 210 l0 170 61 37 c98 61 98 63 99 433 l1 310 246 140
c263 150 308 181 329 232 20 47 20 659 0 706 -21 51 -66 82 -329 232 l-246
140 -1 310 c0 302 -1 312 -22 355 -18 36 -38 54 -96 89 -43 27 -85 44 -103 44
-41 0 -72 -33 -71 -75 1 -36 18 -54 96 -100 l46 -27 -2 -298 -3 -298 -256
-148 -256 -147 -256 147 -257 148 0 301 0 301 256 147 c140 81 258 146 262
144 4 -2 37 -20 74 -41 80 -45 120 -47 151 -5 40 53 10 94 -118 159 -122 61
-118 62 -434 -120 -144 -83 -266 -151 -271 -151 -5 0 -127 68 -271 152 -282
163 -316 175 -386 144z m323 -283 l254 -146 0 -301 0 -301 -256 -148 -256
-147 -257 148 -256 148 -3 297 -2 296 27 18 c52 35 478 281 487 282 5 1 123
-65 262 -146z m-591 -1027 l250 -144 0 -302 0 -302 -254 -146 -254 -146 -51
28 c-28 16 -144 82 -258 148 l-208 120 0 298 0 298 253 146 c138 80 257 146
262 146 6 0 123 -65 260 -144z m2370 0 l250 -144 0 -302 0 -302 -250 -145
c-137 -79 -258 -142 -267 -139 -9 2 -127 68 -262 146 l-246 142 0 84 c0 77 -2
87 -25 109 -30 30 -64 32 -99 4 -24 -19 -26 -26 -26 -103 0 -67 -3 -86 -17
-98 -26 -22 -490 -288 -503 -288 -13 0 -476 266 -502 288 -16 13 -18 36 -18
204 l0 188 68 0 c40 0 73 -5 80 -12 7 -7 12 -41 12 -80 0 -39 7 -85 16 -106
73 -175 322 -176 403 -2 13 29 17 88 21 346 l5 312 201 -117 c111 -64 209
-122 218 -130 12 -10 16 -31 16 -92 0 -68 3 -81 22 -99 30 -27 73 -26 103 5
22 21 25 33 25 104 l0 79 253 146 c138 80 257 146 262 146 6 0 123 -65 260
-144z m-1546 -518 c-29 -24 -64 -23 -89 4 -16 18 -20 35 -20 92 -1 147 -69
216 -214 216 -56 0 -67 3 -80 22 -13 19 -14 25 -3 36 8 7 106 66 218 131 l204
117 3 -300 c2 -297 2 -301 -19 -318z m-217 -517 l238 -136 0 -301 0 -301 -256
-147 -256 -148 -222 128 c-121 70 -238 138 -259 151 l-37 23 2 297 3 296 255
148 c214 123 258 145 275 137 11 -6 127 -72 257 -147z m1218 -18 l205 -119 0
-299 0 -300 -60 -35 c-91 -55 -95 -68 -95 -291 0 -172 -2 -188 -20 -212 -42
-53 -127 -39 -149 24 -7 20 -11 118 -11 256 0 247 -4 270 -63 331 -48 51 -99
73 -166 73 -94 1 -171 -44 -214 -125 -22 -40 -22 -49 -27 -554 l-5 -514 -33
-29 c-47 -43 -102 -41 -148 5 l-34 34 0 818 0 819 257 147 257 147 50 -29 c28
-16 143 -82 256 -147z m-305 -748 c24 -23 25 -30 25 -138 0 -141 -3 -144 -102
-85 l-70 41 4 78 c3 65 7 81 27 103 33 35 83 35 116 1z"/>
<path d="M2662 622 c-63 -23 -123 -78 -154 -142 -19 -39 -23 -61 -22 -160 0
-94 4 -123 20 -160 74 -163 278 -209 413 -94 68 59 84 101 89 229 2 64 -1 128
-7 152 -37 138 -203 223 -339 175z m145 -154 c36 -18 53 -68 53 -155 0 -98
-20 -136 -79 -154 -48 -14 -90 -1 -121 39 -17 21 -20 40 -20 122 0 83 3 101
21 124 33 42 90 52 146 24z"/>
</g>
</svg>
